<?xml version="1.0" encoding="UTF-8"?>
<!DOCTYPE svg PUBLIC "-//W3C//DTD SVG 1.1//EN" "http://www.w3.org/Graphics/SVG/1.1/DTD/svg11.dtd">
<!-- Creator: CorelDRAW X8 -->
<svg xmlns="http://www.w3.org/2000/svg" xml:space="preserve" width="210mm" height="297mm" version="1.1" style="shape-rendering:geometricPrecision; text-rendering:geometricPrecision; image-rendering:optimizeQuality; fill-rule:evenodd; clip-rule:evenodd"
viewBox="0 0 21000 29700"
 xmlns:xlink="http://www.w3.org/1999/xlink">
 <defs>
  <style type="text/css">
   <![CDATA[
    .fil1 {fill:#FEFEFE;fill-rule:nonzero}
    .fil0 {fill:#2B2A29;fill-opacity:0.200000}
   ]]>
  </style>
 </defs>
 <g id="Layer_x0020_1">
  <metadata id="CorelCorpID_0Corel-Layer"/>
  <g id="_2073518020576">
   <path class="fil0" d="M5895 14621c-8,113 -13,229 -13,345 0,154 8,306 23,455 341,205 637,534 816,725 192,204 640,777 1142,757l-189 243c-121,149 -184,337 -184,534l0 188 0 599c280,241 589,449 921,617 127,24 250,35 366,35 404,0 914,-133 1290,-482l0 -769 -4 0 0 -1604 -4168 -1643z"/>
   <path class="fil0" d="M10500 10348c-306,0 -605,30 -895,87 883,152 1762,552 2655,1208 -196,129 -306,318 -306,514l0 1494c0,0 8,702 420,1118 -616,126 -1236,-569 -1534,-890 -192,-204 -640,-777 -1142,-757l189 -243c121,-149 184,-338 184,-534l0 0 0 -188 0 -769c-373,-349 -882,-482 -1287,-482 -218,0 -467,39 -708,129 -204,126 -397,267 -578,422l0 700 0 1604 4448 1753 0 103 6 -11c23,-35 54,-60 93,-74l2 -1 2 0c1,0 3,0 4,0 3,-2 7,-3 12,-3 6,0 12,3 17,7 6,6 8,15 8,23 0,8 -3,14 -8,18 -5,4 -11,7 -17,9 -14,4 -27,12 -37,22 -12,11 -21,24 -29,38 -8,14 -14,30 -18,46 -3,14 -6,29 -6,44 0,17 3,34 7,51 5,19 12,37 22,54 10,16 23,30 39,41 17,12 37,17 58,17 19,0 36,-5 52,-16 16,-11 29,-25 40,-42 12,-17 21,-36 28,-56 7,-18 12,-37 16,-56 4,-22 11,-42 19,-62 8,-21 20,-41 33,-59 14,-18 30,-33 49,-45 20,-12 42,-18 65,-18 25,0 50,4 73,14 22,9 41,21 56,39 16,17 28,38 35,60 9,26 12,52 12,78 0,20 -1,39 -5,59 -4,19 -10,37 -19,54 -9,18 -20,33 -34,47 -16,15 -33,27 -52,37 -5,3 -12,5 -18,5 -6,0 -12,-3 -16,-6 -8,-5 -11,-14 -11,-24 0,-6 2,-11 6,-16 3,-3 7,-6 11,-8l0 -1 0 0c26,-13 46,-33 59,-59 15,-27 22,-57 22,-88 0,-18 -2,-36 -8,-53 -5,-15 -12,-29 -23,-41 -10,-12 -22,-21 -35,-27 -16,-7 -33,-10 -50,-10 -12,0 -23,2 -33,8 -11,6 -20,13 -28,22 -8,10 -16,20 -22,32 -6,11 -11,23 -16,35 -4,11 -8,22 -11,33 -2,9 -4,18 -6,26l0 1c-13,51 -34,105 -71,144 -32,33 -70,51 -116,51 -28,0 -56,-6 -81,-21 -23,-13 -42,-30 -57,-51 -8,-10 -14,-20 -19,-31l0 372c6,-17 16,-31 30,-43 17,-16 39,-25 61,-31 30,-8 62,-10 93,-10l379 0 0 -87c0,-17 10,-28 28,-28 18,0 30,10 30,28l0 87 180 0c18,0 30,11 30,29 0,19 -12,29 -30,29l-180 0 0 125c0,8 -2,15 -8,21 -5,7 -13,10 -22,10 -9,0 -17,-3 -22,-10 -4,-6 -6,-14 -6,-21l0 -125 -386 0c-22,0 -47,1 -68,8 -15,4 -29,11 -39,22 -10,11 -16,24 -19,38 -4,18 -6,37 -6,55 0,7 -2,14 -6,19 -5,9 -13,13 -22,13 -7,0 -13,-2 -17,-5l0 119c4,-3 10,-4 17,-4l575 0c19,0 29,11 29,30 0,18 -11,28 -29,28l-575 0c-7,0 -13,-1 -17,-4l0 186c4,-3 10,-5 18,-5l890 0c19,0 29,12 29,30 0,18 -11,28 -29,28l-890 0c-7,0 -13,-1 -18,-4l0 185c4,-3 10,-5 18,-5l890 0c19,0 29,12 29,30 0,18 -11,29 -29,29l-890 0c-7,0 -13,-2 -18,-5l0 131 0 45c4,-3 10,-5 17,-5l573 0c18,0 29,11 29,29 0,18 -11,29 -29,29l-49 0c5,3 9,6 13,9 16,13 30,28 41,45 11,18 19,37 25,57 5,20 8,41 8,62 0,28 -4,55 -13,82 -8,25 -20,49 -35,71l-1 1c-2,3 -4,5 -7,7 -5,4 -10,6 -16,6 -8,0 -15,-3 -21,-8 -5,-6 -9,-13 -9,-21 0,-3 1,-6 2,-10 1,-4 2,-7 5,-10 11,-17 20,-35 26,-54 7,-20 10,-40 10,-61 0,-24 -4,-47 -15,-69 -10,-21 -25,-39 -43,-54 -19,-16 -41,-28 -64,-37 -25,-9 -52,-13 -79,-13l-351 -3c-7,0 -13,-2 -17,-4l0 18 0 461c4,-3 10,-4 17,-4l575 0c19,0 29,12 29,30 0,18 -11,28 -29,28l-575 0c-7,0 -13,-1 -17,-4l0 127 0 200c17,-36 40,-68 69,-95 31,-29 67,-51 106,-67 41,-17 84,-24 129,-24 44,0 87,7 128,24 39,16 74,38 105,67 30,28 54,61 71,99 18,38 26,79 26,121 0,22 -3,44 -8,65 -5,21 -12,42 -22,62 -9,19 -21,38 -34,55 -14,18 -28,33 -44,48 -6,5 -13,10 -20,14 -7,4 -14,8 -21,11l420 0c18,0 29,12 29,30 0,18 -11,28 -29,28l-886 0c-8,0 -14,-1 -19,-5l0 96 0 241 1 -3c17,-39 40,-74 70,-104 30,-31 65,-54 104,-71 41,-18 84,-26 129,-26 44,0 87,7 128,24 38,16 74,38 104,66 30,28 54,60 71,97 17,38 26,77 26,119 0,39 -8,77 -24,113 -12,26 -27,49 -45,71 1543,-748 2608,-2329 2608,-4158 0,-2551 -2068,-4618 -4618,-4618zm1446 7971l0 134c5,-3 11,-5 19,-5l102 0c-7,-3 -13,-6 -18,-9l0 3 -18 -15c-35,-29 -63,-63 -83,-104l-2 -4zm0 772l0 261c102,-34 203,-71 302,-111 -10,-5 -15,-13 -15,-26l0 -523c-32,1 -63,8 -93,21 -32,14 -60,34 -85,58 -24,25 -43,54 -56,86 -14,34 -21,69 -21,105 0,35 6,70 19,103 12,32 30,60 52,84 6,5 9,12 9,20 0,6 -3,13 -8,18 -5,6 -13,10 -21,10 -10,0 -18,-7 -25,-14l-14 -18 0 0c-18,-22 -33,-47 -44,-74zm791 -2647c14,0 25,4 35,14 9,9 14,21 14,34 0,13 -5,25 -14,34 -10,9 -21,14 -35,14 -13,0 -24,-5 -34,-14 -9,-9 -14,-21 -14,-34 0,-13 5,-25 14,-34 10,-10 21,-14 34,-14zm0 1223c14,0 25,5 35,14 9,9 14,21 14,34 0,13 -5,25 -14,34 -10,10 -21,14 -35,14 -13,0 -24,-4 -34,-14 -9,-9 -14,-21 -14,-34 0,-13 5,-25 14,-34 10,-9 21,-14 34,-14zm-487 779c37,0 72,-6 106,-20 32,-13 62,-31 87,-54 25,-23 45,-50 59,-81 14,-31 22,-64 22,-98 0,-35 -7,-68 -22,-99 -14,-31 -34,-57 -59,-80 -25,-24 -55,-41 -87,-54 -34,-14 -69,-20 -106,-20 -36,0 -72,6 -106,20 -33,13 -62,30 -88,54 -24,23 -44,50 -58,80 -15,31 -22,64 -22,99 0,34 7,67 22,98 14,30 34,58 58,81 26,23 56,41 88,54 34,14 70,20 106,20zm41 247l0 491c29,-4 56,-12 83,-25 28,-14 54,-32 76,-55 22,-23 39,-48 51,-76 13,-29 19,-58 19,-89 0,-31 -6,-61 -19,-89 -12,-28 -29,-53 -50,-75 -23,-23 -48,-41 -77,-56 -26,-13 -54,-21 -83,-26z"/>
  </g>
  <path class="fil1" d="M5196 17154c627,61 1228,-240 1194,-1202 -26,-625 -396,-1649 -646,-2315 147,6 323,8 515,7 -4,14 -7,27 -9,39 -52,261 344,610 510,649 0,0 160,-355 351,-702 49,-1 97,-2 145,-4 0,0 423,61 379,357 -44,301 -200,597 -200,597 -92,131 -188,261 -283,388 -353,474 -505,875 -484,932 22,52 305,261 318,265l0 5c5,0 201,-5 401,-179 38,-33 72,-70 104,-108 3,2 6,5 9,8 57,52 335,248 335,248 0,0 201,0 401,-179 21,-17 40,-36 59,-56 34,58 307,257 316,261l0 5c4,0 200,-5 400,-179 31,-27 59,-56 86,-86 36,59 306,256 315,260l0 5c4,0 200,-5 400,-179 201,-174 310,-457 310,-457l-61 -57c-222,327 -432,436 -567,470 114,-278 358,-805 806,-1454 675,-980 1498,-1581 1581,-1720 83,-144 -257,-388 -257,-388 -1038,1135 -2147,2561 -2453,3212 -188,235 -361,320 -478,350 113,-278 357,-805 806,-1454 675,-980 1498,-1581 1581,-1720 82,-144 -257,-388 -257,-388 -1037,1134 -2145,2558 -2452,3210 -184,220 -353,297 -462,322 79,-213 218,-549 418,-880 331,-535 527,-509 527,-509 0,0 -222,-327 -304,-353 -83,-26 -758,962 -932,1315l-19 38c-209,287 -407,386 -530,419 113,-278 357,-805 801,-1454 248,-357 514,-662 754,-915l348 -8c218,0 226,74 226,74 0,0 114,-48 109,-196 -4,-39 -196,-61 -483,-70 331,-326 583,-531 627,-605 83,-144 -257,-388 -257,-388 0,0 -431,540 -810,989 -350,-2 -754,4 -1129,10 44,-72 89,-139 132,-197 279,-384 518,-553 518,-553 0,0 -122,-340 -340,-323 0,0 -506,632 -836,1079l-32 1c53,-181 133,-414 233,-579 196,-309 152,-374 -249,-483 -400,-105 -1119,135 -1193,174 -74,43 -261,348 -248,483 3,30 30,145 72,312 -18,57 -39,159 -11,272 4,15 35,28 89,38 159,626 391,1552 433,1969 70,640 22,1268 -152,1298 -165,26 -914,-361 -1380,-1241 61,-105 122,-205 183,-283 283,-383 714,-915 714,-915 0,0 -127,-339 -340,-318 0,0 -1010,1372 -1241,1738 -235,370 239,640 239,640l148 -313c253,335 758,927 1202,971zm10813 -950c153,26 484,-34 688,-213 200,-174 309,-457 309,-457l-61 -57c-374,549 -1001,571 -1001,571 0,0 -83,-109 17,-375 749,-144 1237,-1045 1237,-1045 -9,-91 -392,-422 -462,-422 -65,0 -344,130 -648,518 -225,285 -438,606 -518,814 -206,280 -397,377 -523,409 714,-1450 1498,-2421 2386,-3174 126,-113 -261,-388 -261,-388 0,-35 -1267,1511 -1703,2125 0,-48 -4,-91 -17,-126 -39,-91 -248,-239 -296,-239 -48,0 -296,82 -815,766 -181,239 -295,424 -361,570 -217,309 -423,407 -549,436 79,-213 218,-549 418,-880 331,-535 527,-509 527,-509 0,0 -222,-327 -305,-353 -82,-26 -757,962 -932,1315 -174,357 -174,353 -117,401 56,52 335,248 335,248 0,0 200,0 401,-179 55,-48 103,-104 144,-160 5,79 35,136 74,182 121,140 195,188 226,188 13,0 331,-384 640,-758 -144,261 -209,448 -196,488 22,52 309,261 318,265l0 5c4,0 200,-5 401,-179 78,-68 143,-153 192,-231 80,160 366,429 452,444zm52 -736c31,-48 61,-100 101,-156 418,-593 753,-754 753,-754l57 48c0,0 -9,144 -401,514 -279,261 -431,335 -510,348zm-1746 279c0,0 26,-96 179,-331 152,-235 770,-1001 801,-914 30,82 22,213 22,213l-1002 1032zm305 -1724c52,0 96,-44 96,-96l0 -227c0,-52 -44,-95 -96,-95l-226 0c-53,0 -96,43 -96,95l0 227c0,52 43,96 96,96l226 0zm-5522 0c52,0 96,-44 96,-96l0 -227c0,-52 -44,-95 -96,-95l-226 0c-53,0 -96,43 -96,95l0 227c0,52 44,96 96,96l226 0zm-3495 -762c-56,-153 -90,-252 -84,-270 21,-88 762,-314 1084,-170 0,0 -153,301 -259,570 -100,-1 -182,-4 -242,-9 -288,-19 -429,-73 -499,-121zm2137 905c0,0 152,-466 -323,-544 0,0 0,0 0,0l775 -26c-161,191 -309,379 -452,570zm4746 3045l0 -1 -71 -119c-137,-237 -447,-806 -739,-1562 -8,-21 -13,-39 -22,-56 223,161 527,305 797,170 506,-244 1625,-2308 1677,-2622 52,-314 -279,-653 -396,-727 -118,-74 -140,-79 -897,740 -401,427 -863,1076 -1211,1598 536,-905 1093,-1698 1145,-1837 66,-192 -453,-410 -453,-410l-1058 1951c-26,-83 -43,-126 -65,-152 -61,-79 -514,257 -514,257 0,0 104,209 248,505 -344,666 -858,1768 -897,1920 -48,174 492,431 492,431 0,0 -43,-396 536,-1611l131 -209c178,370 361,762 470,1015 270,627 300,853 322,932 21,77 486,-202 505,-213zm-936 -2013c-22,-56 -39,-113 -61,-165 967,-1367 2177,-2582 2177,-2582 114,82 209,274 -48,722 -257,449 -1010,1664 -1428,2025 -261,227 -501,114 -640,0z"/>
 </g>
</svg>
