<?xml version="1.0" encoding="UTF-8"?>
<!DOCTYPE svg PUBLIC "-//W3C//DTD SVG 1.1//EN" "http://www.w3.org/Graphics/SVG/1.1/DTD/svg11.dtd">
<!-- Creator: CorelDRAW X8 -->
<svg xmlns="http://www.w3.org/2000/svg" xml:space="preserve" width="210mm" height="297mm" version="1.1" style="shape-rendering:geometricPrecision; text-rendering:geometricPrecision; image-rendering:optimizeQuality; fill-rule:evenodd; clip-rule:evenodd"
viewBox="0 0 21000 29700"
 xmlns:xlink="http://www.w3.org/1999/xlink">
 <defs>
  <style type="text/css">
   <![CDATA[
    .fil0 {fill:#FEFEFE;fill-rule:nonzero}
   ]]>
  </style>
 </defs>
 <g id="Layer_x0020_1">
  <metadata id="CorelCorpID_0Corel-Layer"/>
  <path class="fil0" d="M5196 17154c627,61 1228,-240 1194,-1202 -26,-625 -396,-1649 -646,-2315 147,6 323,8 515,7 -4,14 -7,27 -9,39 -52,261 344,610 510,649 0,0 160,-355 351,-702 49,-1 97,-2 145,-4 0,0 423,61 379,357 -44,301 -200,597 -200,597 -92,131 -188,261 -283,388 -353,474 -505,875 -484,932 22,52 305,261 318,265l0 5c5,0 201,-5 401,-179 38,-33 72,-70 104,-108 3,2 6,5 9,8 57,52 335,248 335,248 0,0 201,0 401,-179 21,-17 40,-36 59,-56 34,58 307,257 316,261l0 5c4,0 200,-5 400,-179 31,-27 59,-56 86,-86 36,59 306,256 315,260l0 5c4,0 200,-5 400,-179 201,-174 310,-457 310,-457l-61 -57c-222,327 -432,436 -567,470 114,-278 358,-805 806,-1454 675,-980 1498,-1581 1581,-1720 83,-144 -257,-388 -257,-388 -1038,1135 -2147,2561 -2453,3212 -188,235 -361,320 -478,350 113,-278 357,-805 806,-1454 675,-980 1498,-1581 1581,-1720 82,-144 -257,-388 -257,-388 -1037,1134 -2145,2558 -2452,3210 -184,220 -353,297 -462,322 79,-213 218,-549 418,-880 331,-535 527,-509 527,-509 0,0 -222,-327 -304,-353 -83,-26 -758,962 -932,1315l-19 38c-209,287 -407,386 -530,419 113,-278 357,-805 801,-1454 248,-357 514,-662 754,-915l348 -8c218,0 226,74 226,74 0,0 114,-48 109,-196 -4,-39 -196,-61 -483,-70 331,-326 583,-531 627,-605 83,-144 -257,-388 -257,-388 0,0 -431,540 -810,989 -350,-2 -754,4 -1129,10 44,-72 89,-139 132,-197 279,-384 518,-553 518,-553 0,0 -122,-340 -340,-323 0,0 -506,632 -836,1079l-32 1c53,-181 133,-414 233,-579 196,-309 152,-374 -249,-483 -400,-105 -1119,135 -1193,174 -74,43 -261,348 -248,483 3,30 30,145 72,312 -18,57 -39,159 -11,272 4,15 35,28 89,38 159,626 391,1552 433,1969 70,640 22,1268 -152,1298 -165,26 -914,-361 -1380,-1241 61,-105 122,-205 183,-283 283,-383 714,-915 714,-915 0,0 -127,-339 -340,-318 0,0 -1010,1372 -1241,1738 -235,370 239,640 239,640l148 -313c253,335 758,927 1202,971zm10813 -950c153,26 484,-34 688,-213 200,-174 309,-457 309,-457l-61 -57c-374,549 -1001,571 -1001,571 0,0 -83,-109 17,-375 749,-144 1237,-1045 1237,-1045 -9,-91 -392,-422 -462,-422 -65,0 -344,130 -648,518 -225,285 -438,606 -518,814 -206,280 -397,377 -523,409 714,-1450 1498,-2421 2386,-3174 126,-113 -261,-388 -261,-388 0,-35 -1267,1511 -1703,2125 0,-48 -4,-91 -17,-126 -39,-91 -248,-239 -296,-239 -48,0 -296,82 -815,766 -181,239 -295,424 -361,570 -217,309 -423,407 -549,436 79,-213 218,-549 418,-880 331,-535 527,-509 527,-509 0,0 -222,-327 -305,-353 -82,-26 -757,962 -932,1315 -174,357 -174,353 -117,401 56,52 335,248 335,248 0,0 200,0 401,-179 55,-48 103,-104 144,-160 5,79 35,136 74,182 121,140 195,188 226,188 13,0 331,-384 640,-758 -144,261 -209,448 -196,488 22,52 309,261 318,265l0 5c4,0 200,-5 401,-179 78,-68 143,-153 192,-231 80,160 366,429 452,444zm52 -736c31,-48 61,-100 101,-156 418,-593 753,-754 753,-754l57 48c0,0 -9,144 -401,514 -279,261 -431,335 -510,348zm-1746 279c0,0 26,-96 179,-331 152,-235 770,-1001 801,-914 30,82 22,213 22,213l-1002 1032zm305 -1724c52,0 96,-44 96,-96l0 -227c0,-52 -44,-95 -96,-95l-226 0c-53,0 -96,43 -96,95l0 227c0,52 43,96 96,96l226 0zm-5522 0c52,0 96,-44 96,-96l0 -227c0,-52 -44,-95 -96,-95l-226 0c-53,0 -96,43 -96,95l0 227c0,52 44,96 96,96l226 0zm-3495 -762c-56,-153 -90,-252 -84,-270 21,-88 762,-314 1084,-170 0,0 -153,301 -259,570 -100,-1 -182,-4 -242,-9 -288,-19 -429,-73 -499,-121zm2137 905c0,0 152,-466 -323,-544 0,0 0,0 0,0l775 -26c-161,191 -309,379 -452,570zm4746 3045l0 -1 -71 -119c-137,-237 -447,-806 -739,-1562 -8,-21 -13,-39 -22,-56 223,161 527,305 797,170 506,-244 1625,-2308 1677,-2622 52,-314 -279,-653 -396,-727 -118,-74 -140,-79 -897,740 -401,427 -863,1076 -1211,1598 536,-905 1093,-1698 1145,-1837 66,-192 -453,-410 -453,-410l-1058 1951c-26,-83 -43,-126 -65,-152 -61,-79 -514,257 -514,257 0,0 104,209 248,505 -344,666 -858,1768 -897,1920 -48,174 492,431 492,431 0,0 -43,-396 536,-1611l131 -209c178,370 361,762 470,1015 270,627 300,853 322,932 21,77 486,-202 505,-213zm-936 -2013c-22,-56 -39,-113 -61,-165 967,-1367 2177,-2582 2177,-2582 114,82 209,274 -48,722 -257,449 -1010,1664 -1428,2025 -261,227 -501,114 -640,0z"/>
 </g>
</svg>
